<svg width="52" height="52" viewBox="0 0 52 52" fill="none" xmlns="http://www.w3.org/2000/svg">
<g filter="url(#filter0_ddd)">
<path d="M48 21.9999C48 28.0751 45.5376 33.5751 41.5564 37.5563C37.5751 41.5375 32.0751 43.9999 26 43.9999C19.9249 43.9999 14.4249 41.5375 10.4437 37.5563C6.46243 33.5751 4 28.0751 4 21.9999C4 15.9248 6.46243 10.4248 10.4437 6.44359C14.4249 2.46237 19.9249 -6.10352e-05 26 -6.10352e-05C32.0751 -6.10352e-05 37.5751 2.46237 41.5564 6.44359C45.5376 10.4248 48 15.9248 48 21.9999Z" fill="white"/>
<g clip-path="url(#clip0)">
<path d="M29.3308 15.3208H31.1567V12.1408C30.8417 12.0975 29.7583 12 28.4967 12C25.8642 12 24.0608 13.6558 24.0608 16.6992V19.5H21.1558V23.055H24.0608V32H27.6225V23.0558H30.41L30.8525 19.5008H27.6217V17.0517C27.6225 16.0242 27.8992 15.3208 29.3308 15.3208Z" fill="#AFB1B8"/>
</g>
</g>
<defs>
<filter id="filter0_ddd" x="0" y="-6.10352e-05" width="52" height="52.0001" filterUnits="userSpaceOnUse" color-interpolation-filters="sRGB">
<feFlood flood-opacity="0" result="BackgroundImageFix"/>
<feColorMatrix in="SourceAlpha" type="matrix" values="0 0 0 0 0 0 0 0 0 0 0 0 0 0 0 0 0 0 127 0"/>
<feOffset dy="4"/>
<feGaussianBlur stdDeviation="2"/>
<feColorMatrix type="matrix" values="0 0 0 0 0 0 0 0 0 0 0 0 0 0 0 0 0 0 0.25 0"/>
<feBlend mode="normal" in2="BackgroundImageFix" result="effect1_dropShadow"/>
<feColorMatrix in="SourceAlpha" type="matrix" values="0 0 0 0 0 0 0 0 0 0 0 0 0 0 0 0 0 0 127 0"/>
<feOffset dy="4"/>
<feGaussianBlur stdDeviation="2"/>
<feColorMatrix type="matrix" values="0 0 0 0 0 0 0 0 0 0 0 0 0 0 0 0 0 0 0.25 0"/>
<feBlend mode="normal" in2="effect1_dropShadow" result="effect2_dropShadow"/>
<feColorMatrix in="SourceAlpha" type="matrix" values="0 0 0 0 0 0 0 0 0 0 0 0 0 0 0 0 0 0 127 0"/>
<feOffset dy="4"/>
<feGaussianBlur stdDeviation="2"/>
<feColorMatrix type="matrix" values="0 0 0 0 0 0 0 0 0 0 0 0 0 0 0 0 0 0 0.25 0"/>
<feBlend mode="normal" in2="effect2_dropShadow" result="effect3_dropShadow"/>
<feBlend mode="normal" in="SourceGraphic" in2="effect3_dropShadow" result="shape"/>
</filter>
<clipPath id="clip0">
<rect width="20" height="20" fill="white" transform="translate(16 12)"/>
</clipPath>
</defs>
</svg>
